<svg version="1.1" xmlns="http://www.w3.org/2000/svg" width="26" height="32" viewBox="0 0 26 32">
  <title>logo</title>
  <path fill="#ffc727"
    d="M19.794 4.427c-2.28-0.57-4.56-1.71-6.27-3.42-1.71 1.71-3.99 2.85-6.271 3.42 0.57 5.13 2.28 8.551 6.271 11.401 3.99-2.85 6.27-6.27 6.27-11.401z">
  </path>
  <path fill="#fbfbfb" d="M17.514 25.651l-15.961-18.811v9.121l12.541 14.251 3.42-4.56z"></path>
  <path fill="#fbfbfb" d="M19.224 23.941l6.841-7.981v-8.551l-10.831 12.541 3.99 3.99z"></path>
  <path fill="#fbfbfb" d="M19.794 26.792v5.13l6.271-7.411v-5.13l-6.27 7.411z"></path>
  <path fill="#fbfbfb" d="M7.823 26.792l-6.271-7.411v5.13l6.271 7.411v-5.13z"></path>
</svg>